<svg width="500" height="500" viewBox="0 0 500 500" fill="none" xmlns="http://www.w3.org/2000/svg">
<path d="M437.5 333.333V166.667C437.492 159.36 435.564 152.183 431.907 145.858C428.25 139.532 422.995 134.278 416.667 130.625L270.833 47.2916C264.499 43.6346 257.314 41.7094 250 41.7094C242.686 41.7094 235.501 43.6346 229.167 47.2916L83.3333 130.625C77.0055 134.278 71.7496 139.532 68.0929 145.858C64.4363 152.183 62.5075 159.36 62.5 166.667V333.333C62.5075 340.64 64.4363 347.816 68.0929 354.142C71.7496 360.468 77.0055 365.722 83.3333 369.375L229.167 452.708C235.501 456.365 242.686 458.291 250 458.291C257.314 458.291 264.499 456.365 270.833 452.708L416.667 369.375C422.995 365.722 428.25 360.468 431.907 354.142C435.564 347.816 437.492 340.64 437.5 333.333Z" stroke="#302E52" stroke-width="10" stroke-linecap="round" stroke-linejoin="round"/>
</svg>
